<?xml version="1.0" encoding="UTF-8" standalone="no"?>
<svg
   xmlns:dc="http://purl.org/dc/elements/1.1/"
   xmlns:cc="http://creativecommons.org/ns#"
   xmlns:rdf="http://www.w3.org/1999/02/22-rdf-syntax-ns#"
   xmlns:svg="http://www.w3.org/2000/svg"
   xmlns="http://www.w3.org/2000/svg"
   id="svg5152"
   version="1.1"
   viewBox="0 0 192.83286 67.548134"
   height="67.548134mm"
   width="192.83286mm">
  <defs
     id="defs5146" />
  <metadata
     id="metadata5149">
    <rdf:RDF>
      <cc:Work
         rdf:about="">
        <dc:format>image/svg+xml</dc:format>
        <dc:type
           rdf:resource="http://purl.org/dc/dcmitype/StillImage" />
        <dc:title></dc:title>
      </cc:Work>
    </rdf:RDF>
  </metadata>
  <g
     transform="translate(76.761672,-33.41641)"
     id="layer1">
    <g
       id="g3901"
       transform="matrix(0.08466666,0,0,0.08466666,-107.34523,-123.84579)">
      <path
         id="path376"
         style="fill:#000000;fill-opacity:1;fill-rule:nonzero;stroke:none;stroke-width:2.99102688"
         d="m 740.27916,1857.4277 h 8.97308 v 2.991 h -8.97308 z m 17.94616,0 h 8.97308 v 2.991 h -8.97308 z m 17.94616,0 h 8.97308 v 2.991 h -8.97308 z m 17.94616,0 h 8.97308 v 2.991 h -8.97308 z m 17.94616,0 h 8.97308 v 2.991 h -8.97308 z m 17.94616,0 h 8.97309 v 2.991 h -8.97309 z m 17.94617,0 h 8.97308 v 2.991 h -8.97308 z m 17.94616,0 h 8.97308 v 2.991 h -8.97308 z m 17.94616,0 h 8.97308 v 2.991 h -8.97308 z m 17.94616,0 h 8.97308 v 2.991 h -8.97308 z m 17.94616,0 h 8.97308 v 2.991 h -8.97308 z m 17.94616,0 h 8.97308 v 2.991 h -8.97308 z m 17.94616,0 h 8.97309 v 2.991 h -8.97309 z m 17.94617,0 h 8.97308 v 2.991 h -8.97308 z m 17.94616,0 h 8.97308 v 2.991 h -8.97308 z m 17.94618,0 h 8.9731 v 2.991 h -8.9731 z m 17.9461,0 h 8.9731 v 2.991 h -8.9731 z m 17.9462,0 h 8.9731 v 2.991 h -8.9731 z m 17.9462,0 h 8.973 v 2.991 h -8.973 z m 17.9461,0 h 8.9731 v 2.991 h -8.9731 z m 17.9462,0 h 8.9731 v 2.991 h -8.9731 z m 17.9461,0 h 8.9731 v 2.991 h -8.9731 z m 17.9462,0 h 8.9731 v 2.991 h -8.9731 z m 17.9462,0 h 8.9731 v 2.991 h -8.9731 z m 17.9461,0 h 8.9731 v 2.991 h -8.9731 z m 17.9462,0 h 8.9731 v 2.991 h -8.9731 z m 17.9462,0 h 8.973 v 2.991 h -8.973 z m 17.9461,0 h 8.9731 v 2.991 h -8.9731 z m 17.9462,0 h 8.9731 v 2.991 h -8.9731 z m 17.9461,0 h 8.9731 v 2.991 h -8.9731 z m 17.9462,0 h 8.9731 v 2.991 h -8.9731 z m 17.9462,0 h 8.973 v 2.991 h -8.973 z m 17.9461,0 h 8.9731 v 2.991 h -8.9731 z m 17.9462,0 h 8.9731 v 2.991 h -8.9731 z m 17.9461,0 h 8.9731 v 2.991 h -8.9731 z m 17.9462,0 h 8.9731 v 2.991 h -8.9731 z m 17.9462,0 h 8.973 v 2.991 h -8.973 z m 17.9461,0 h 8.9731 v 2.991 h -8.9731 z m 17.9462,0 h 8.9731 v 2.991 h -8.9731 z m 17.9462,0 h 8.973 v 2.991 h -8.973 z m 17.9461,0 h 8.9731 v 2.991 h -8.9731 z m 17.9462,0 h 8.9731 v 2.991 h -8.9731 z m 17.9461,0 h 8.9731 v 2.991 h -8.9731 z m 17.9462,0 h 8.9731 v 2.991 h -8.9731 z m 17.9462,0 h 8.973 v 2.991 h -8.973 z m 17.9461,0 h 8.9731 v 2.991 h -8.9731 z m 17.9462,0 h 8.9731 v 2.991 h -8.9731 z m 17.9461,0 h 8.9731 v 2.991 h -8.9731 z m 17.9462,0 h 8.9731 v 2.991 h -8.9731 z m 17.9462,0 h 8.973 v 2.991 h -8.973 z m 17.9461,0 h 8.9731 v 2.991 h -8.9731 z m 17.9462,0 h 8.9731 v 2.991 h -8.9731 z m 17.9462,0 h 8.973 v 2.991 h -8.973 z m 17.9461,0 h 8.9731 v 2.991 h -8.9731 z m 17.9462,0 h 8.9731 v 2.991 h -8.9731 z m 17.9461,0 h 8.9731 v 2.991 h -8.9731 z m 17.9462,0 h 8.9731 v 2.991 h -8.9731 z m 17.9462,0 h 8.973 v 2.991 h -8.973 z m 17.9461,0 h 8.9731 v 2.991 h -8.9731 z m 17.9462,0 h 8.9731 v 2.991 h -8.9731 z m 17.9461,0 h 8.9731 v 2.991 h -8.9731 z m 17.9462,0 h 8.9731 v 2.991 h -8.9731 z m 17.9462,0 h 8.973 v 2.991 h -8.973 z m 17.9461,0 h 8.9731 v 2.991 h -8.9731 z m 17.9462,0 h 8.9731 v 2.991 h -8.9731 z m 17.9461,0 h 8.9731 v 2.991 h -8.9731 z m 17.9462,0 h 8.9731 v 2.991 h -8.9731 z m 17.9462,0 h 8.9731 v 2.991 h -8.9731 z m 17.9461,0 h 8.9731 v 2.991 h -8.9731 z m 17.9462,0 h 8.9731 v 2.991 h -8.9731 z m 17.9462,0 h 8.973 v 2.991 h -8.973 z m 17.9461,0 h 8.9731 v 2.991 h -8.9731 z m 17.9462,0 h 8.9731 v 2.991 h -8.9731 z m 17.9461,0 h 8.9731 v 2.991 h -8.9731 z m 17.9462,0 h 8.9731 v 2.991 h -8.9731 z m 17.9462,0 h 8.973 v 2.991 h -8.973 z m 17.9461,0 h 8.9731 v 2.991 h -8.9731 z m 17.9462,0 h 8.9731 v 2.991 h -8.9731 z m 17.9461,0 h 8.9731 v 2.991 h -8.9731 z m 17.9462,0 h 8.9731 v 2.991 h -8.9731 z m 17.9462,0 h 8.9731 v 2.991 h -8.9731 z m 17.9461,0 h 8.9731 v 2.991 h -8.9731 z m 17.9462,0 h 8.9731 v 2.991 h -8.9731 z m 17.9462,0 h 8.973 v 2.991 h -8.973 z m 17.9461,0 h 8.9731 v 2.991 h -8.9731 z m 17.9462,0 h 8.9731 v 2.991 h -8.9731 z m 13.4596,7.4776 v 8.9731 h -2.991 v -8.9731 z m 0,17.9461 v 8.9731 h -2.991 v -8.9731 z m 0,17.9462 v 8.9731 h -2.991 v -8.9731 z m 0,17.9462 v 8.973 h -2.991 v -8.973 z m 0,17.9461 v 8.9731 h -2.991 v -8.9731 z m 0,17.9462 v 8.9731 h -2.991 v -8.9731 z m 0,17.9461 v 8.9731 h -2.991 v -8.9731 z m 0,17.9462 v 8.9731 h -2.991 v -8.9731 z m 0,17.9462 v 8.973 h -2.991 v -8.973 z m 0,17.9461 v 8.9731 h -2.991 v -8.9731 z m 0,17.9462 v 8.9731 h -2.991 v -8.9731 z m 0,17.9461 v 8.9731 h -2.991 v -8.9731 z m 0,17.9462 v 8.9731 h -2.991 v -8.9731 z m 0,17.9462 v 8.9731 h -2.991 v -8.9731 z m 0,17.9461 v 8.9731 h -2.991 v -8.9731 z m 0,17.9462 v 8.9731 h -2.991 v -8.9731 z m 0,17.9462 v 8.973 h -2.991 v -8.973 z m 0,17.9461 v 8.9731 h -2.991 v -8.9731 z m 0,17.9462 v 8.9731 h -2.991 v -8.9731 z m 0,17.9461 v 8.9731 h -2.991 v -8.9731 z m 0,17.9462 v 8.9731 h -2.991 v -8.9731 z m 0,17.9462 v 8.973 h -2.991 v -8.973 z m 0,17.9461 v 8.9731 h -2.991 v -8.9731 z m 0,17.9462 v 8.9731 h -2.991 v -8.9731 z m 0,17.9461 v 8.9731 h -2.991 v -8.9731 z m 0,17.9462 v 8.9731 h -2.991 v -8.9731 z m 0,17.9462 v 8.973 h -2.991 v -8.973 z m 0,17.9461 v 8.9731 h -2.991 v -8.9731 z m 0,17.9462 v 8.9731 h -2.991 v -8.9731 z m 0,17.9462 v 8.973 h -2.991 v -8.973 z m 0,17.9461 v 8.9731 h -2.991 v -8.9731 z m 0,17.9462 v 8.9731 h -2.991 v -8.9731 z m 0,17.9461 v 8.9731 h -2.991 v -8.9731 z m -1.4955,19.4417 h -8.9731 v -2.991 h 8.9731 z m -17.9462,0 h -8.9731 v -2.991 h 8.9731 z m -17.9461,0 h -8.9731 v -2.991 h 8.9731 z m -17.9462,0 h -8.9731 v -2.991 h 8.9731 z m -17.9462,0 h -8.973 v -2.991 h 8.973 z m -17.9461,0 h -8.9731 v -2.991 h 8.9731 z m -17.9462,0 h -8.9731 v -2.991 h 8.9731 z m -17.9461,0 h -8.9731 v -2.991 h 8.9731 z m -17.9462,0 h -8.9731 v -2.991 h 8.9731 z m -17.9462,0 h -8.973 v -2.991 h 8.973 z m -17.9461,0 h -8.9731 v -2.991 h 8.9731 z m -17.9462,0 h -8.9731 v -2.991 h 8.9731 z m -17.9462,0 h -8.973 v -2.991 h 8.973 z m -17.9461,0 h -8.9731 v -2.991 h 8.9731 z m -17.9462,0 h -8.9731 v -2.991 h 8.9731 z m -17.9461,0 h -8.9731 v -2.991 h 8.9731 z m -17.9462,0 h -8.9731 v -2.991 h 8.9731 z m -17.9462,0 h -8.973 v -2.991 h 8.973 z m -17.9461,0 h -8.9731 v -2.991 h 8.9731 z m -17.9462,0 h -8.9731 v -2.991 h 8.9731 z m -17.9461,0 h -8.9731 v -2.991 h 8.9731 z m -17.9462,0 h -8.9731 v -2.991 h 8.9731 z m -17.9462,0 h -8.973 v -2.991 h 8.973 z m -17.9461,0 h -8.9731 v -2.991 h 8.9731 z m -17.9462,0 h -8.9731 v -2.991 h 8.9731 z m -17.9462,0 h -8.973 v -2.991 h 8.973 z m -17.9461,0 h -8.9731 v -2.991 h 8.9731 z m -17.9462,0 h -8.9731 v -2.991 h 8.9731 z m -17.9461,0 h -8.9731 v -2.991 h 8.9731 z m -17.9462,0 h -8.9731 v -2.991 h 8.9731 z m -17.9462,0 h -8.973 v -2.991 h 8.973 z m -17.9461,0 h -8.9731 v -2.991 h 8.9731 z m -17.9462,0 h -8.9731 v -2.991 h 8.9731 z m -17.9461,0 h -8.9731 v -2.991 h 8.9731 z m -17.9462,0 h -8.9731 v -2.991 h 8.9731 z m -17.9462,0 h -8.973 v -2.991 h 8.973 z m -17.9461,0 h -8.9731 v -2.991 h 8.9731 z m -17.9462,0 h -8.9731 v -2.991 h 8.9731 z m -17.9461,0 h -8.9731 v -2.991 h 8.9731 z m -17.9462,0 h -8.9731 v -2.991 h 8.9731 z m -17.9462,0 h -8.9731 v -2.991 h 8.9731 z m -17.9461,0 h -8.9731 v -2.991 h 8.9731 z m -17.9462,0 h -8.9731 v -2.991 h 8.9731 z m -17.9462,0 h -8.973 v -2.991 h 8.973 z m -17.9461,0 h -8.9731 v -2.991 h 8.9731 z m -17.9462,0 h -8.9731 v -2.991 h 8.9731 z m -17.9461,0 h -8.9731 v -2.991 h 8.9731 z m -17.9462,0 h -8.9731 v -2.991 h 8.9731 z m -17.9462,0 h -8.973 v -2.991 h 8.973 z m -17.9461,0 h -8.9731 v -2.991 h 8.9731 z m -17.9462,0 h -8.9731 v -2.991 h 8.9731 z m -17.9461,0 h -8.9731 v -2.991 h 8.9731 z m -17.9462,0 h -8.9731 v -2.991 h 8.9731 z m -17.9462,0 h -8.9731 v -2.991 h 8.9731 z m -17.9461,0 h -8.9731 v -2.991 h 8.9731 z m -17.9462,0 h -8.9731 v -2.991 h 8.9731 z m -17.9462,0 h -8.973 v -2.991 h 8.973 z m -17.9461,0 h -8.9731 v -2.991 h 8.9731 z m -17.9462,0 h -8.9731 v -2.991 h 8.9731 z m -17.9461,0 h -8.9731 v -2.991 h 8.9731 z m -17.9462,0 h -8.9731 v -2.991 h 8.9731 z m -17.9462,0 h -8.973 v -2.991 h 8.973 z m -17.9461,0 h -8.9731 v -2.991 h 8.9731 z m -17.9462,0 h -8.9731 v -2.991 h 8.9731 z m -17.9461,0 h -8.9731 v -2.991 h 8.9731 z m -17.9462,0 h -8.9731 v -2.991 h 8.9731 z m -17.9462,0 h -8.973 v -2.991 h 8.973 z m -17.9461,0 h -8.9731 v -2.991 h 8.9731 z m -17.9462,0 h -8.9731 v -2.991 h 8.9731 z m -17.9462,0 h -8.973 v -2.991 h 8.973 z m -17.9461,0 h -8.9731 v -2.991 h 8.9731 z m -17.9462,0 h -8.97306 v -2.991 h 8.97306 z m -17.94614,0 h -8.97308 v -2.991 h 8.97308 z m -17.94616,0 h -8.97308 v -2.991 h 8.97308 z m -17.94616,0 h -8.97308 v -2.991 h 8.97308 z m -17.94616,0 h -8.97308 v -2.991 h 8.97308 z m -17.94616,0 h -8.97308 v -2.991 h 8.97308 z m -17.94616,0 h -8.97308 v -2.991 h 8.97308 z m -17.94616,0 h -8.97309 v -2.991 h 8.97309 z m -17.94617,0 h -8.97308 v -2.991 h 8.97308 z m -17.94616,0 h -8.97308 v -2.991 h 8.97308 z m -17.94616,0 h -8.97308 v -2.991 h 8.97308 z m -17.94616,0 h -8.97308 v -2.991 h 8.97308 z m -17.94616,0 h -8.97308 v -2.991 h 8.97308 z m -17.94616,0 h -8.97308 v -2.991 h 8.97308 z m -17.94616,0 h -8.97309 v -2.991 h 8.97309 z m -17.94617,0 h -8.97308 v -2.991 h 8.97308 z m -13.45962,-7.4776 v -8.973 h 2.99103 v 8.973 z m 0,-17.9461 v -8.9731 h 2.99103 v 8.9731 z m 0,-17.9462 v -8.9731 h 2.99103 v 8.9731 z m 0,-17.9461 v -8.9731 h 2.99103 v 8.9731 z m 0,-17.9462 v -8.9731 h 2.99103 v 8.9731 z m 0,-17.9462 v -8.973 h 2.99103 v 8.973 z m 0,-17.9461 v -8.9731 h 2.99103 v 8.9731 z m 0,-17.9462 v -8.9731 h 2.99103 v 8.9731 z m 0,-17.9461 v -8.9731 h 2.99103 v 8.9731 z m 0,-17.9462 v -8.9731 h 2.99103 v 8.9731 z m 0,-17.9462 v -8.9731 h 2.99103 v 8.9731 z m 0,-17.9461 v -8.9731 h 2.99103 v 8.9731 z m 0,-17.9462 v -8.9731 h 2.99103 v 8.9731 z m 0,-17.9462 v -8.973 h 2.99103 v 8.973 z m 0,-17.9461 v -8.9731 h 2.99103 v 8.9731 z m 0,-17.9462 v -8.9731 h 2.99103 v 8.9731 z m 0,-17.9461 v -8.9731 h 2.99103 v 8.9731 z m 0,-17.9462 v -8.9731 h 2.99103 v 8.9731 z m 0,-17.9462 v -8.973 h 2.99103 v 8.973 z m 0,-17.9461 v -8.9731 h 2.99103 v 8.9731 z m 0,-17.9462 v -8.9731 h 2.99103 v 8.9731 z m 0,-17.9461 v -8.9731 h 2.99103 v 8.9731 z m 0,-17.9462 v -8.9731 h 2.99103 v 8.9731 z m 0,-17.9462 v -8.973 h 2.99103 v 8.973 z m 0,-17.9461 v -8.9731 h 2.99103 v 8.9731 z m 0,-17.9462 v -8.9731 h 2.99103 v 8.9731 z m 0,-17.9462 v -8.973 h 2.99103 v 8.973 z m 0,-17.9461 v -8.9731 h 2.99103 v 8.9731 z m 0,-17.9462 v -8.9731 h 2.99103 v 8.9731 z m 0,-17.9461 v -8.9731 h 2.99103 v 8.9731 z m 0,-17.9462 v -8.9731 h 2.99103 v 8.9731 z m 0,-17.9462 v -8.973 h 2.99103 v 8.973 z m 0,-17.9461 v -8.9731 h 2.99103 v 8.9731 z m 1.49552,-19.4417 h 8.97308 v 2.991 H 722.333 Z" />
      <g
         id="g384"
         transform="matrix(2.9910269,0,0,2.9910269,1.4955134,1.4955134)">
        <path
           d="M 281,661 H 481 V 781 H 281 Z"
           style="fill:#ffffff;fill-opacity:1;fill-rule:nonzero;stroke:none"
           id="path386" />
        <path
           d="M 281,661 H 481 V 781 H 281 Z"
           style="fill:none;stroke:#000000;stroke-width:1;stroke-linecap:butt;stroke-linejoin:miter;stroke-miterlimit:10;stroke-dasharray:none;stroke-opacity:1"
           id="path388" />
      </g>
      <g
         id="g390"
         transform="matrix(2.9910269,0,0,2.9910269,927.21832,2066.7996)">
        <text
           transform="translate(0.09375,17)"
           style="font-variant:normal;font-weight:normal;font-size:18px;font-family:Helvetica;-inkscape-font-specification:Helvetica;writing-mode:lr-tb;fill:#000000;fill-opacity:1;fill-rule:nonzero;stroke:none"
           id="text394">
          <tspan
             x="0 4.6845703 9.6855469 14.686523 24.697266 33.697266 43.708008 53.71875 58.719727 68.730469 78.741211 88.751953 92.750977 97.751953 106.75195 111.75293 121.76367 131.77441"
             y="0"
             id="tspan392">fft_spdf_halfstage</tspan>
        </text>
        <text
           transform="translate(3.96875,38)"
           style="font-variant:normal;font-weight:normal;font-size:18px;font-family:Helvetica;-inkscape-font-specification:Helvetica;writing-mode:lr-tb;fill:#000000;fill-opacity:1;fill-rule:nonzero;stroke:none"
           id="text398">
          <tspan
             x="0 5.9941406 16.004883 25.004883 29.003906 39.014648 49.025391 54.026367 64.037109 74.047852 79.048828 84.049805 94.060547 100.05469 109.05469 118.05469 128.06543"
             y="0"
             id="tspan396">(using butterﬂy1)</tspan>
        </text>
        <text
           transform="translate(25.21875,59)"
           style="font-variant:normal;font-weight:normal;font-size:18px;font-family:Helvetica;-inkscape-font-specification:Helvetica;writing-mode:lr-tb;fill:#000000;fill-opacity:1;fill-rule:nonzero;stroke:none"
           id="text402">
          <tspan
             x="0 10.010742 20.021484 24.020508 34.03125 43.03125 48.032227 58.543945 63.544922 76.543945 81.544922"
             y="0"
             id="tspan400">delay = N/2</tspan>
        </text>
      </g>
      <g
         id="g404"
         transform="matrix(2.9910269,0,0,2.9910269,1.4955134,1.4955134)">
        <path
           d="M 521,661 H 721 V 781 H 521 Z"
           style="fill:#ffffff;fill-opacity:1;fill-rule:nonzero;stroke:none"
           id="path406" />
        <path
           d="M 521,661 H 721 V 781 H 521 Z"
           style="fill:none;stroke:#000000;stroke-width:1;stroke-linecap:butt;stroke-linejoin:miter;stroke-miterlimit:10;stroke-dasharray:none;stroke-opacity:1"
           id="path408" />
      </g>
      <g
         id="g410"
         transform="matrix(2.9910269,0,0,2.9910269,1645.0648,2066.7996)">
        <text
           transform="translate(0.09375,17)"
           style="font-variant:normal;font-weight:normal;font-size:18px;font-family:Helvetica;-inkscape-font-specification:Helvetica;writing-mode:lr-tb;fill:#000000;fill-opacity:1;fill-rule:nonzero;stroke:none"
           id="text414">
          <tspan
             x="0 4.6845703 9.6855469 14.686523 24.697266 33.697266 43.708008 53.71875 58.719727 68.730469 78.741211 88.751953 92.750977 97.751953 106.75195 111.75293 121.76367 131.77441"
             y="0"
             id="tspan412">fft_spdf_halfstage</tspan>
        </text>
        <text
           transform="translate(3.96875,38)"
           style="font-variant:normal;font-weight:normal;font-size:18px;font-family:Helvetica;-inkscape-font-specification:Helvetica;writing-mode:lr-tb;fill:#000000;fill-opacity:1;fill-rule:nonzero;stroke:none"
           id="text418">
          <tspan
             x="0 5.9941406 16.004883 25.004883 29.003906 39.014648 49.025391 54.026367 64.037109 74.047852 79.048828 84.049805 94.060547 100.05469 109.05469 118.05469 128.06543"
             y="0"
             id="tspan416">(using butterﬂy2)</tspan>
        </text>
        <text
           transform="translate(25.21875,59)"
           style="font-variant:normal;font-weight:normal;font-size:18px;font-family:Helvetica;-inkscape-font-specification:Helvetica;writing-mode:lr-tb;fill:#000000;fill-opacity:1;fill-rule:nonzero;stroke:none"
           id="text422">
          <tspan
             x="0 10.010742 20.021484 24.020508 34.03125 43.03125 48.032227 58.543945 63.544922 76.543945 81.544922"
             y="0"
             id="tspan420">delay = N/4</tspan>
        </text>
      </g>
      <g
         id="g424"
         transform="matrix(2.9910269,0,0,2.9910269,1.4955134,1.4955134)">
        <path
           d="m 481,721 h 33.63"
           style="fill:none;stroke:#000000;stroke-width:1;stroke-linecap:butt;stroke-linejoin:miter;stroke-miterlimit:10;stroke-dasharray:none;stroke-opacity:1"
           id="path426" />
        <path
           d="m 519.88,721 -7,3.5 1.75,-3.5 -1.75,-3.5 z"
           style="fill:#000000;fill-opacity:1;fill-rule:nonzero;stroke:none"
           id="path428" />
        <path
           d="m 519.88,721 -7,3.5 1.75,-3.5 -1.75,-3.5 z"
           style="fill:none;stroke:#000000;stroke-width:1;stroke-linecap:butt;stroke-linejoin:miter;stroke-miterlimit:10;stroke-dasharray:none;stroke-opacity:1"
           id="path430" />
        <path
           d="m 201,721 h 73.63"
           style="fill:none;stroke:#000000;stroke-width:1;stroke-linecap:butt;stroke-linejoin:miter;stroke-miterlimit:10;stroke-dasharray:none;stroke-opacity:1"
           id="path432" />
        <path
           d="m 279.88,721 -7,3.5 1.75,-3.5 -1.75,-3.5 z"
           style="fill:#000000;fill-opacity:1;fill-rule:nonzero;stroke:none"
           id="path434" />
        <path
           d="m 279.88,721 -7,3.5 1.75,-3.5 -1.75,-3.5 z"
           style="fill:none;stroke:#000000;stroke-width:1;stroke-linecap:butt;stroke-linejoin:miter;stroke-miterlimit:10;stroke-dasharray:none;stroke-opacity:1"
           id="path436" />
        <path
           d="m 137,706 h 48 l 16,15 -16,15 h -48 l -16,-15 z"
           style="fill:#ffffff;fill-opacity:1;fill-rule:nonzero;stroke:none"
           id="path438" />
        <path
           d="m 137,706 h 48 l 16,15 -16,15 h -48 l -16,-15 z"
           style="fill:none;stroke:#000000;stroke-width:1;stroke-linecap:butt;stroke-linejoin:miter;stroke-miterlimit:10;stroke-dasharray:none;stroke-opacity:1"
           id="path440" />
      </g>
      <g
         id="g442"
         transform="matrix(2.9910269,0,0,2.9910269,448.65402,2132.6021)">
        <text
           transform="translate(0.3125,14)"
           style="font-variant:normal;font-weight:normal;font-size:16px;font-family:Helvetica;-inkscape-font-specification:Helvetica;writing-mode:lr-tb;fill:#000000;fill-opacity:1;fill-rule:nonzero;stroke:none"
           id="text446">
          <tspan
             x="0 8.8984375 12.453125"
             y="0"
             id="tspan444">din</tspan>
        </text>
      </g>
      <g
         id="g448"
         transform="matrix(2.9910269,0,0,2.9910269,1.4955134,1.4955134)">
        <path
           d="m 817,706 h 48 l 16,15 -16,15 h -48 l -16,-15 z"
           style="fill:#ffffff;fill-opacity:1;fill-rule:nonzero;stroke:none"
           id="path450" />
        <path
           d="m 817,706 h 48 l 16,15 -16,15 h -48 l -16,-15 z"
           style="fill:none;stroke:#000000;stroke-width:1;stroke-linecap:butt;stroke-linejoin:miter;stroke-miterlimit:10;stroke-dasharray:none;stroke-opacity:1"
           id="path452" />
      </g>
      <g
         id="g454"
         transform="matrix(2.9910269,0,0,2.9910269,2467.5972,2132.6021)">
        <text
           transform="translate(0.421875,14)"
           style="font-variant:normal;font-weight:normal;font-size:16px;font-family:Helvetica;-inkscape-font-specification:Helvetica;writing-mode:lr-tb;fill:#000000;fill-opacity:1;fill-rule:nonzero;stroke:none"
           id="text458">
          <tspan
             x="0 8.8984375 17.796875 26.695312"
             y="0"
             id="tspan456">dout</tspan>
        </text>
      </g>
      <g
         id="g460"
         transform="matrix(2.9910269,0,0,2.9910269,1.4955134,1.4955134)">
        <path
           d="m 721,721 h 73.63"
           style="fill:none;stroke:#000000;stroke-width:1;stroke-linecap:butt;stroke-linejoin:miter;stroke-miterlimit:10;stroke-dasharray:none;stroke-opacity:1"
           id="path462" />
        <path
           d="m 799.88,721 -7,3.5 1.75,-3.5 -1.75,-3.5 z"
           style="fill:#000000;fill-opacity:1;fill-rule:nonzero;stroke:none"
           id="path464" />
        <path
           d="m 799.88,721 -7,3.5 1.75,-3.5 -1.75,-3.5 z"
           style="fill:none;stroke:#000000;stroke-width:1;stroke-linecap:butt;stroke-linejoin:miter;stroke-miterlimit:10;stroke-dasharray:none;stroke-opacity:1"
           id="path466" />
      </g>
    </g>
    <g
       transform="matrix(0.25324026,0,0,0.25324026,-48.340249,85.837147)"
       id="g468">
      <path
         id="path470"
         style="fill:#000000;fill-opacity:1;fill-rule:nonzero;stroke:none"
         d="m 28,30 c -2e-6,0.397823 -0.07612,0.780506 -0.228365,1.148046 -0.152241,0.367543 -0.369013,0.691968 -0.650318,0.973273 -0.281305,0.281303 -0.605728,0.498073 -0.973271,0.650314 C 25.780506,32.923874 25.397823,32.999996 25,33 c -0.397827,-4e-6 -0.780512,-0.07613 -1.148054,-0.228367 -0.36754,-0.152241 -0.691963,-0.369011 -0.973267,-0.650314 C 22.597374,31.840014 22.3806,31.515589 22.228359,31.148046 22.076118,30.780506 21.999998,30.397823 22,30 c -2e-6,-0.397825 0.07612,-0.78051 0.228359,-1.148052 0.152241,-0.367544 0.369015,-0.691967 0.65032,-0.973271 0.281304,-0.281305 0.605727,-0.498077 0.973269,-0.650318 C 24.219488,27.07612 24.602173,27 25,27 c 0.397823,0 0.780506,0.07612 1.148046,0.228359 0.367543,0.152241 0.691966,0.369013 0.973271,0.650318 0.281305,0.281304 0.498077,0.605727 0.650318,0.973271 C 27.923876,29.21949 27.999998,29.602175 28,30 Z" />
      <text
         id="text474"
         style="font-variant:normal;font-weight:normal;font-size:18px;font-family:Helvetica;-inkscape-font-specification:Helvetica;writing-mode:lr-tb;fill:#000000;fill-opacity:1;fill-rule:nonzero;stroke:none"
         transform="translate(40,35)">
        <tspan
           id="tspan472"
           y="0"
           x="0 10.995117 21.005859 31.016602 40.016602 45.017578 49.016602 59.027344 69.038086 79.048828 83.047852 87.046875 96.046875 101.04785 111.05859 121.06934 131.08008 135.0791 144.0791 154.08984 158.08887 168.09961 178.11035 183.11133 188.1123 193.11328 203.12402 208.125 221.12402 230.12402 240.13477 245.13574 250.13672 256.13086 266.1416 276.15234 285.15234 295.16309 305.17383 314.17383 324.18457 330.17871 335.17969 340.18066 350.19141 354.19043 358.18945 368.2002 381.19922 391.20996 401.2207 406.22168 416.23242 425.23242 430.2334 440.24414 446.23828 457.2334 468.22852">Functionally equivalent to Nx4 transposer followed by 4-FFT</tspan>
      </text>
      <text
         id="text478"
         style="font-variant:normal;font-weight:normal;font-size:18px;font-family:Helvetica;-inkscape-font-specification:Helvetica;writing-mode:lr-tb;fill:#000000;fill-opacity:1;fill-rule:nonzero;stroke:none"
         transform="translate(40,56)">
        <tspan
           id="tspan476"
           y="0"
           x="0 5.0009766 15.011719 19.010742 23.009766 33.020508 46.019531 56.030273 66.041016 71.041992 81.052734 90.052734 95.053711 105.06445 114.06445 127.06348 132.06445 137.06543 143.05957 153.07031 163.08105 172.08105 182.0918 192.10254 201.10254 211.11328">followed by 4xN transposer</tspan>
      </text>
    </g>
  </g>
</svg>
