<?xml version="1.0" encoding="UTF-8" standalone="no"?>
<svg
   xmlns:dc="http://purl.org/dc/elements/1.1/"
   xmlns:cc="http://creativecommons.org/ns#"
   xmlns:rdf="http://www.w3.org/1999/02/22-rdf-syntax-ns#"
   xmlns:svg="http://www.w3.org/2000/svg"
   xmlns="http://www.w3.org/2000/svg"
   id="svg4754"
   version="1.1"
   viewBox="0 0 253.61052 91.419731"
   height="91.419731mm"
   width="253.61052mm">
  <defs
     id="defs4748" />
  <metadata
     id="metadata4751">
    <rdf:RDF>
      <cc:Work
         rdf:about="">
        <dc:format>image/svg+xml</dc:format>
        <dc:type
           rdf:resource="http://purl.org/dc/dcmitype/StillImage" />
        <dc:title></dc:title>
      </cc:Work>
    </rdf:RDF>
  </metadata>
  <g
     transform="translate(-3.5965206,-70.617516)"
     id="layer1">
    <g
       id="g3852"
       transform="matrix(0.08466666,0,0,0.08466666,3.4017933,45.04025)">
      <path
         id="path1762"
         style="fill:#000000;fill-opacity:1;fill-rule:nonzero;stroke:none;stroke-width:2.99102688"
         d="m 324.52642,302.09372 h 8.97308 v 2.99102 h -8.97308 z m 17.94616,0 h 8.97308 v 2.99102 h -8.97308 z m 17.94616,0 h 8.97308 v 2.99102 h -8.97308 z m 17.94616,0 h 8.97308 v 2.99102 h -8.97308 z m 17.94616,0 h 8.97308 v 2.99102 h -8.97308 z m 17.94617,0 h 8.97308 v 2.99102 h -8.97308 z m 17.94616,0 h 8.97308 v 2.99102 h -8.97308 z m 17.94616,0 h 8.97308 v 2.99102 h -8.97308 z m 17.94616,0 h 8.97308 v 2.99102 h -8.97308 z m 17.94616,0 h 8.97308 v 2.99102 h -8.97308 z m 17.94616,0 h 8.97308 v 2.99102 h -8.97308 z m 17.94616,0 h 8.97308 v 2.99102 h -8.97308 z m 17.94617,0 h 8.97308 v 2.99102 h -8.97308 z m 17.94616,0 h 8.97308 v 2.99102 h -8.97308 z m 17.94616,0 h 8.97308 v 2.99102 h -8.97308 z m 17.94616,0 h 8.97308 v 2.99102 h -8.97308 z m 17.94616,0 h 8.97308 v 2.99102 H 611.665 Z m 17.94616,0 h 8.97308 v 2.99102 h -8.97308 z m 17.94616,0 h 8.97308 v 2.99102 h -8.97308 z m 17.94617,0 h 8.97308 v 2.99102 h -8.97308 z m 17.94616,0 h 8.97308 v 2.99102 h -8.97308 z m 17.94616,0 h 8.97308 v 2.99102 h -8.97308 z m 17.94616,0 h 8.97308 v 2.99102 h -8.97308 z m 17.94616,0 h 8.97308 v 2.99102 h -8.97308 z m 17.94616,0 h 8.97308 v 2.99102 h -8.97308 z m 17.94616,0 h 8.97308 v 2.99102 h -8.97308 z m 17.94617,0 h 8.97308 v 2.99102 h -8.97308 z m 17.94616,0 h 8.97308 v 2.99102 h -8.97308 z m 17.94616,0 h 8.97308 v 2.99102 h -8.97308 z m 17.94616,0 h 8.97308 v 2.99102 h -8.97308 z m 17.94616,0 h 8.97308 v 2.99102 h -8.97308 z m 17.94616,0 h 8.97308 v 2.99102 h -8.97308 z m 17.94616,0 h 8.97308 v 2.99102 h -8.97308 z m 17.94616,0 h 8.97309 v 2.99102 h -8.97309 z m 17.94617,0 h 8.97308 v 2.99102 h -8.97308 z m 17.94616,0 h 8.97308 v 2.99102 h -8.97308 z m 17.94616,0 h 8.97308 v 2.99102 h -8.97308 z m 17.94616,0 h 8.97308 v 2.99102 h -8.97308 z m 17.94621,0 h 8.973 v 2.99102 h -8.973 z m 17.9461,0 h 8.9731 v 2.99102 h -8.9731 z m 17.9462,0 h 8.9731 v 2.99102 h -8.9731 z m 17.9461,0 h 8.9731 v 2.99102 h -8.9731 z m 17.9462,0 h 8.9731 v 2.99102 h -8.9731 z m 17.9462,0 h 8.973 v 2.99102 h -8.973 z m 17.9461,0 h 8.9731 v 2.99102 h -8.9731 z m 17.9462,0 h 8.9731 v 2.99102 h -8.9731 z m 17.9461,0 h 8.9731 v 2.99102 h -8.9731 z m 17.9462,0 h 8.9731 v 2.99102 h -8.9731 z m 17.9462,0 h 8.973 v 2.99102 h -8.973 z m 17.9461,0 h 8.9731 v 2.99102 h -8.9731 z m 17.9462,0 h 8.9731 v 2.99102 h -8.9731 z m 17.9462,0 h 8.973 v 2.99102 h -8.973 z m 17.9461,0 h 8.9731 v 2.99102 h -8.9731 z m 17.9462,0 h 8.9731 v 2.99102 h -8.9731 z m 17.9461,0 h 8.9731 v 2.99102 h -8.9731 z m 17.9462,0 h 8.9731 v 2.99102 h -8.9731 z m 17.9462,0 h 8.973 v 2.99102 h -8.973 z m 17.9461,0 h 8.9731 v 2.99102 h -8.9731 z m 17.9462,0 h 8.9731 v 2.99102 h -8.9731 z m 17.9461,0 h 8.9731 v 2.99102 h -8.9731 z m 17.9462,0 h 8.9731 v 2.99102 h -8.9731 z m 17.9462,0 h 8.973 v 2.99102 h -8.973 z m 17.9461,0 h 8.9731 v 2.99102 h -8.9731 z m 17.9462,0 h 8.9731 v 2.99102 h -8.9731 z m 17.9461,0 h 8.9731 v 2.99102 h -8.9731 z m 17.9463,0 H 1500 v 2.99102 h -8.973 z m 17.9461,0 h 8.973 v 2.99102 h -8.973 z m 17.9461,0 h 8.9731 v 2.99102 h -8.9731 z m 17.9462,0 h 8.9731 v 2.99102 h -8.9731 z m 17.9462,0 h 8.973 v 2.99102 h -8.973 z m 17.9461,0 h 8.9731 v 2.99102 h -8.9731 z m 17.9462,0 h 8.9731 v 2.99102 h -8.9731 z m 17.9461,0 h 8.9731 v 2.99102 h -8.9731 z m 17.9462,0 h 8.9731 v 2.99102 h -8.9731 z m 17.9462,0 h 8.973 v 2.99102 h -8.973 z m 17.9461,0 h 8.9731 v 2.99102 h -8.9731 z m 17.9462,0 h 8.9731 v 2.99102 h -8.9731 z m 17.9461,0 h 8.9731 v 2.99102 h -8.9731 z m 17.9462,0 h 8.9731 v 2.99102 h -8.9731 z m 17.9462,0 h 8.973 v 2.99102 h -8.973 z m 17.9461,0 h 8.9731 v 2.99102 h -8.9731 z m 17.9462,0 h 8.9731 v 2.99102 h -8.9731 z m 17.9462,0 h 8.973 v 2.99102 h -8.973 z m 17.9461,0 h 8.9731 v 2.99102 h -8.9731 z m 17.9462,0 h 8.9731 v 2.99102 h -8.9731 z m 17.9461,0 h 8.9731 v 2.99102 h -8.9731 z m 17.9462,0 h 8.9731 v 2.99102 h -8.9731 z m 17.9462,0 h 8.973 v 2.99102 h -8.973 z m 17.9461,0 h 8.9731 v 2.99102 h -8.9731 z m 17.9462,0 h 8.9731 v 2.99102 h -8.9731 z m 17.9461,0 h 8.9731 v 2.99102 h -8.9731 z m 17.9462,0 h 8.9731 v 2.99102 h -8.9731 z m 17.9462,0 h 8.973 v 2.99102 h -8.973 z m 17.9461,0 h 8.9731 v 2.99102 h -8.9731 z m 17.9462,0 h 8.9731 v 2.99102 h -8.9731 z m 17.9462,0 h 8.973 v 2.99102 h -8.973 z m 17.9461,0 h 8.9731 v 2.99102 h -8.9731 z m 17.9462,0 h 8.9731 v 2.99102 h -8.9731 z m 17.9461,0 h 8.9731 v 2.99102 h -8.9731 z m 17.9462,0 h 8.9731 v 2.99102 h -8.9731 z m 17.9462,0 h 8.973 v 2.99102 h -8.973 z m 17.9461,0 h 8.9731 v 2.99102 h -8.9731 z m 17.9462,0 h 8.9731 v 2.99102 h -8.9731 z m 17.9461,0 h 8.9731 v 2.99102 h -8.9731 z m 17.9462,0 h 8.9731 v 2.99102 h -8.9731 z m 17.9462,0 h 8.973 v 2.99102 h -8.973 z m 17.9461,0 h 8.9731 v 2.99102 h -8.9731 z m 17.9462,0 h 8.9731 v 2.99102 h -8.9731 z m 17.9461,0 h 8.9731 v 2.99102 h -8.9731 z m 17.9462,0 h 8.9731 v 2.99102 h -8.9731 z m 17.9462,0 h 8.9731 v 2.99102 h -8.9731 z m 17.9461,0 h 8.9731 v 2.99102 h -8.9731 z m 17.9462,0 h 8.9731 v 2.99102 h -8.9731 z m 17.9462,0 h 8.973 v 2.99102 h -8.973 z m 17.9461,0 h 8.9731 v 2.99102 h -8.9731 z m 17.9462,0 h 8.9731 v 2.99102 h -8.9731 z m 17.9461,0 h 8.9731 v 2.99102 h -8.9731 z m 17.9462,0 h 8.9731 v 2.99102 h -8.9731 z m 17.9462,0 h 8.973 v 2.99102 h -8.973 z m 17.9461,0 h 8.9731 v 2.99102 h -8.9731 z m 17.9462,0 h 8.9731 v 2.99102 h -8.9731 z m 17.9461,0 h 8.9731 v 2.99102 h -8.9731 z m 17.9462,0 h 8.9731 v 2.99102 h -8.9731 z m 17.9462,0 h 8.9731 v 2.99102 h -8.9731 z m 17.9461,0 h 8.9731 v 2.99102 h -8.9731 z m 17.9462,0 h 8.9731 v 2.99102 h -8.9731 z m 17.9462,0 h 8.973 v 2.99102 h -8.973 z m 17.9461,0 h 8.9731 v 2.99102 h -8.9731 z m 17.9462,0 h 8.9731 v 2.99102 h -8.9731 z m 16.4506,4.48654 v 8.97308 h -2.991 v -8.97308 z m 0,17.94616 v 8.97308 h -2.991 v -8.97308 z m 0,17.94616 v 8.97308 h -2.991 v -8.97308 z m 0,17.94616 v 8.97308 h -2.991 v -8.97308 z m 0,17.94616 v 8.97308 h -2.991 v -8.97308 z m 0,17.94616 v 8.97308 h -2.991 v -8.97308 z m 0,17.94617 v 8.97308 h -2.991 v -8.97308 z m 0,17.94616 v 8.97308 h -2.991 v -8.97308 z m 0,17.94616 v 8.97308 h -2.991 v -8.97308 z m 0,17.94616 v 8.97308 h -2.991 v -8.97308 z m 0,17.94616 v 8.97308 h -2.991 v -8.97308 z m 0,17.94616 v 8.97308 h -2.991 v -8.97308 z m 0,17.94616 v 8.97308 h -2.991 v -8.97308 z m 0,17.94617 v 8.97308 h -2.991 v -8.97308 z m 0,17.94616 v 8.97308 h -2.991 v -8.97308 z m 0,17.94616 v 8.97308 h -2.991 v -8.97308 z m 0,17.94616 v 8.97308 h -2.991 v -8.97308 z m 0,17.94616 v 8.97308 h -2.991 V 611.665 Z m 0,17.94616 v 8.97308 h -2.991 v -8.97308 z m 0,17.94616 v 8.97308 h -2.991 v -8.97308 z m 0,17.94617 v 8.97308 h -2.991 v -8.97308 z m 0,17.94616 v 8.97308 h -2.991 v -8.97308 z m 0,17.94616 v 8.97308 h -2.991 v -8.97308 z m 0,17.94616 v 8.97308 h -2.991 v -8.97308 z m 0,17.94616 v 8.97308 h -2.991 v -8.97308 z m 0,17.94616 v 8.97308 h -2.991 v -8.97308 z m 0,17.94616 v 8.97308 h -2.991 v -8.97308 z m 0,17.94617 v 8.97308 h -2.991 v -8.97308 z m 0,17.94616 v 8.97308 h -2.991 v -8.97308 z m 0,17.94616 v 8.97308 h -2.991 v -8.97308 z m 0,17.94616 v 8.97308 h -2.991 v -8.97308 z m 0,17.94616 v 8.97308 h -2.991 v -8.97308 z m 0,17.94616 v 8.97308 h -2.991 v -8.97308 z m 0,17.94616 v 8.97308 h -2.991 v -8.97308 z m 0,17.94616 v 8.97309 h -2.991 v -8.97309 z m 0,17.94617 v 8.97308 h -2.991 v -8.97308 z m 0,17.94616 v 8.97308 h -2.991 v -8.97308 z m 0,17.94616 v 8.97308 h -2.991 v -8.97308 z m 0,17.94616 v 8.97308 h -2.991 v -8.97308 z m 0,17.94621 v 8.973 h -2.991 v -8.973 z m 0,17.9461 v 8.9731 h -2.991 v -8.9731 z m 0,17.9462 v 8.9731 h -2.991 v -8.9731 z m 0,17.9461 v 8.9731 h -2.991 v -8.9731 z m 0,17.9462 v 8.9731 h -2.991 v -8.9731 z m 0,17.9462 v 8.973 h -2.991 v -8.973 z m 0,17.9461 v 8.9731 h -2.991 v -8.9731 z m 0,17.9462 v 8.9731 h -2.991 v -8.9731 z m 0,17.9461 v 8.9731 h -2.991 v -8.9731 z m 0,17.9462 v 8.9731 h -2.991 v -8.9731 z m 0,17.9462 v 8.973 h -2.991 v -8.973 z m 0,17.9461 v 8.9731 h -2.991 v -8.9731 z m 0,17.9462 v 8.9731 h -2.991 v -8.9731 z m 0,17.9462 v 8.973 h -2.991 v -8.973 z m 0,17.9461 v 8.9731 h -2.991 v -8.9731 z m 0,17.9462 v 8.9731 h -2.991 v -8.9731 z m 0,17.9461 v 8.9731 h -2.991 v -8.9731 z m 0,17.9462 v 8.9731 h -2.991 v -8.9731 z m 0,17.9462 v 8.973 h -2.991 v -8.973 z m 0,17.9461 v 8.9731 h -2.991 v -8.9731 z m 0,17.9462 v 8.9731 h -2.991 v -8.9731 z m -4.4865,16.4506 h -8.9731 v -2.991 h 8.9731 z m -17.9462,0 h -8.9731 v -2.991 h 8.9731 z m -17.9461,0 h -8.9731 v -2.991 h 8.9731 z m -17.9462,0 h -8.9731 v -2.991 h 8.9731 z m -17.9462,0 h -8.973 v -2.991 h 8.973 z m -17.9461,0 h -8.9731 v -2.991 h 8.9731 z m -17.9462,0 h -8.9731 v -2.991 h 8.9731 z m -17.9461,0 h -8.9731 v -2.991 h 8.9731 z m -17.9462,0 h -8.9731 v -2.991 h 8.9731 z m -17.9462,0 h -8.973 v -2.991 h 8.973 z m -17.9461,0 h -8.9731 v -2.991 h 8.9731 z m -17.9462,0 h -8.9731 v -2.991 h 8.9731 z m -17.9462,0 h -8.973 v -2.991 h 8.973 z m -17.9461,0 h -8.9731 v -2.991 h 8.9731 z m -17.9462,0 h -8.9731 v -2.991 h 8.9731 z m -17.9461,0 h -8.9731 v -2.991 h 8.9731 z m -17.9462,0 h -8.9731 v -2.991 h 8.9731 z m -17.9462,0 h -8.973 v -2.991 h 8.973 z m -17.9461,0 h -8.9731 v -2.991 h 8.9731 z m -17.9462,0 h -8.9731 v -2.991 h 8.9731 z m -17.9461,0 h -8.9731 v -2.991 h 8.9731 z m -17.9462,0 h -8.9731 v -2.991 h 8.9731 z m -17.9462,0 h -8.973 v -2.991 h 8.973 z m -17.9461,0 h -8.9731 v -2.991 h 8.9731 z m -17.9462,0 h -8.9731 v -2.991 h 8.9731 z m -17.9461,0 h -8.9731 v -2.991 h 8.9731 z m -17.9462,0 h -8.9731 v -2.991 h 8.9731 z m -17.9462,0 h -8.9731 v -2.991 h 8.9731 z m -17.9461,0 h -8.9731 v -2.991 h 8.9731 z m -17.9462,0 h -8.9731 v -2.991 h 8.9731 z m -17.9462,0 h -8.973 v -2.991 h 8.973 z m -17.9461,0 h -8.9731 v -2.991 h 8.9731 z m -17.9462,0 h -8.9731 v -2.991 h 8.9731 z m -17.9461,0 h -8.9731 v -2.991 h 8.9731 z m -17.9462,0 h -8.9731 v -2.991 h 8.9731 z m -17.9462,0 h -8.973 v -2.991 h 8.973 z m -17.9461,0 h -8.9731 v -2.991 h 8.9731 z m -17.9462,0 h -8.9731 v -2.991 h 8.9731 z m -17.9461,0 h -8.9731 v -2.991 h 8.9731 z m -17.9462,0 h -8.9731 v -2.991 h 8.9731 z m -17.9462,0 h -8.9731 v -2.991 h 8.9731 z m -17.9461,0 h -8.9731 v -2.991 h 8.9731 z m -17.9462,0 h -8.9731 v -2.991 h 8.9731 z m -17.9462,0 h -8.973 v -2.991 h 8.973 z m -17.9461,0 h -8.9731 v -2.991 h 8.9731 z m -17.9462,0 h -8.9731 v -2.991 h 8.9731 z m -17.9461,0 h -8.9731 v -2.991 h 8.9731 z m -17.9462,0 h -8.9731 v -2.991 h 8.9731 z m -17.9462,0 h -8.973 v -2.991 h 8.973 z m -17.9461,0 h -8.9731 v -2.991 h 8.9731 z m -17.9462,0 h -8.9731 v -2.991 h 8.9731 z m -17.9461,0 h -8.9731 v -2.991 h 8.9731 z m -17.9462,0 h -8.9731 v -2.991 h 8.9731 z m -17.9462,0 h -8.973 v -2.991 h 8.973 z m -17.9461,0 h -8.9731 v -2.991 h 8.9731 z m -17.9462,0 h -8.9731 v -2.991 h 8.9731 z m -17.9462,0 h -8.973 v -2.991 h 8.973 z m -17.9461,0 h -8.9731 v -2.991 h 8.9731 z m -17.9462,0 h -8.9731 v -2.991 h 8.9731 z m -17.9461,0 h -8.9731 v -2.991 h 8.9731 z m -17.9462,0 h -8.9731 v -2.991 h 8.9731 z m -17.9462,0 h -8.973 v -2.991 h 8.973 z m -17.9461,0 h -8.9731 v -2.991 h 8.9731 z m -17.9462,0 h -8.9731 v -2.991 h 8.9731 z m -17.9461,0 h -8.9731 v -2.991 h 8.9731 z m -17.9462,0 h -8.9731 v -2.991 h 8.9731 z m -17.9461,0 h -8.9731 v -2.991 h 8.9731 z m -17.9463,0 h -8.973 v -2.991 h 8.973 z m -17.9461,0 h -8.973 v -2.991 h 8.973 z m -17.9462,0 h -8.9731 v -2.991 h 8.9731 z m -17.9461,0 h -8.9731 v -2.991 h 8.9731 z m -17.9461,0 h -8.9732 v -2.991 h 8.9732 z m -17.9463,0 h -8.973 v -2.991 h 8.973 z m -17.9461,0 h -8.9731 v -2.991 h 8.9731 z m -17.9462,0 h -8.9729 v -2.991 h 8.9729 z m -17.9461,0 h -8.9732 v -2.991 h 8.9732 z m -17.9462,0 h -8.9731 v -2.991 h 8.9731 z m -17.9461,0 h -8.9731 v -2.991 h 8.9731 z m -17.9463,0 h -8.973 v -2.991 h 8.973 z m -17.9461,0 h -8.973 v -2.991 h 8.973 z m -17.9461,0 h -8.9732 v -2.991 h 8.9732 z m -17.9462,0 h -8.9731 v -2.991 h 8.9731 z m -17.9461,0 h -8.9731 v -2.991 h 8.9731 z m -17.9461,0 h -8.9732 v -2.991 h 8.9732 z m -17.9464,0 h -8.973 v -2.991 h 8.973 z m -17.946,0 h -8.9731 v -2.991 h 8.9731 z m -17.9462,0 h -8.9731 v -2.991 h 8.9731 z m -17.9462,0 h -8.973 v -2.991 h 8.973 z m -17.9461,0 h -8.9731 v -2.991 h 8.9731 z m -17.9462,0 h -8.9731 v -2.991 h 8.9731 z m -17.9461,0 h -8.9731 v -2.991 h 8.9731 z m -17.9462,0 h -8.97308 v -2.991 h 8.97308 z m -17.94616,0 h -8.97308 v -2.991 h 8.97308 z m -17.94616,0 h -8.97309 v -2.991 h 8.97309 z m -17.94617,0 h -8.97308 v -2.991 h 8.97308 z m -17.94616,0 h -8.97308 v -2.991 h 8.97308 z m -17.94616,0 h -8.97308 v -2.991 h 8.97308 z m -17.94616,0 h -8.97308 v -2.991 h 8.97308 z m -17.94616,0 h -8.97308 v -2.991 h 8.97308 z m -17.94616,0 h -8.97308 v -2.991 h 8.97308 z m -17.94616,0 h -8.97309 v -2.991 h 8.97309 z m -17.94617,0 h -8.97308 v -2.991 h 8.97308 z m -17.94616,0 h -8.97308 v -2.991 h 8.97308 z m -17.94616,0 h -8.97308 v -2.991 h 8.97308 z m -17.94616,0 h -8.97308 v -2.991 h 8.97308 z m -17.94616,0 h -8.97308 v -2.991 h 8.97308 z m -17.94616,0 H 722.333 v -2.991 h 8.97308 z m -17.94616,0 h -8.97309 v -2.991 h 8.97309 z m -17.94617,0 h -8.97308 v -2.991 h 8.97308 z m -17.94616,0 h -8.97308 v -2.991 h 8.97308 z m -17.94616,0 h -8.97308 v -2.991 h 8.97308 z m -17.94616,0 h -8.97308 v -2.991 h 8.97308 z m -17.94616,0 h -8.97308 v -2.991 h 8.97308 z m -17.94616,0 h -8.97308 v -2.991 h 8.97308 z m -17.94616,0 h -8.97308 v -2.991 h 8.97308 z m -17.94617,0 h -8.97308 v -2.991 h 8.97308 z m -17.94616,0 h -8.97308 v -2.991 h 8.97308 z m -17.94616,0 h -8.97308 v -2.991 h 8.97308 z m -17.94616,0 h -8.97308 v -2.991 h 8.97308 z m -17.94616,0 h -8.97308 v -2.991 h 8.97308 z m -17.94616,0 h -8.97308 v -2.991 h 8.97308 z m -17.94616,0 h -8.97308 v -2.991 h 8.97308 z m -17.94617,0 h -8.97308 v -2.991 h 8.97308 z m -17.94616,0 h -8.97308 v -2.991 h 8.97308 z m -17.94616,0 h -8.97308 v -2.991 h 8.97308 z m -17.94616,0 h -8.97308 v -2.991 h 8.97308 z m -17.94616,0 h -8.97308 v -2.991 h 8.97308 z m -17.94616,0 h -8.97308 v -2.991 h 8.97308 z m -17.94616,0 h -8.97308 v -2.991 h 8.97308 z m -17.94617,0 h -8.97308 v -2.991 h 8.97308 z m -13.45962,-7.4775 v -8.9731 h 2.99103 v 8.9731 z m 0,-17.9462 v -8.9731 h 2.99103 v 8.9731 z m 0,-17.9462 v -8.973 h 2.99103 v 8.973 z m 0,-17.9461 v -8.9731 h 2.99103 v 8.9731 z m 0,-17.9462 v -8.9731 h 2.99103 v 8.9731 z m 0,-17.9461 v -8.9731 h 2.99103 v 8.9731 z m 0,-17.9462 v -8.9731 h 2.99103 v 8.9731 z m 0,-17.9462 v -8.973 h 2.99103 v 8.973 z m 0,-17.9461 v -8.9731 h 2.99103 v 8.9731 z m 0,-17.9462 v -8.9731 h 2.99103 v 8.9731 z m 0,-17.9462 v -8.973 h 2.99103 v 8.973 z m 0,-17.9461 v -8.9731 h 2.99103 v 8.9731 z m 0,-17.9462 v -8.9731 h 2.99103 v 8.9731 z m 0,-17.9461 v -8.9731 h 2.99103 v 8.9731 z m 0,-17.9462 v -8.9731 h 2.99103 v 8.9731 z m 0,-17.9462 v -8.973 h 2.99103 v 8.973 z m 0,-17.9461 v -8.9731 h 2.99103 v 8.9731 z m 0,-17.9462 v -8.9731 h 2.99103 v 8.9731 z m 0,-17.9461 v -8.9731 h 2.99103 v 8.9731 z m 0,-17.9462 v -8.9731 h 2.99103 v 8.9731 z m 0,-17.9462 v -8.973 h 2.99103 v 8.973 z m 0,-17.94613 v -8.97308 h 2.99103 v 8.97308 z m 0,-17.94616 v -8.97308 h 2.99103 v 8.97308 z m 0,-17.94616 v -8.97308 h 2.99103 v 8.97308 z m 0,-17.94616 v -8.97308 h 2.99103 v 8.97308 z m 0,-17.94616 v -8.97309 h 2.99103 v 8.97309 z m 0,-17.94617 v -8.97308 h 2.99103 v 8.97308 z m 0,-17.94616 v -8.97308 h 2.99103 v 8.97308 z m 0,-17.94616 v -8.97308 h 2.99103 v 8.97308 z m 0,-17.94616 v -8.97308 h 2.99103 v 8.97308 z m 0,-17.94616 v -8.97308 h 2.99103 v 8.97308 z m 0,-17.94616 v -8.97308 h 2.99103 v 8.97308 z m 0,-17.94616 v -8.97308 h 2.99103 v 8.97308 z m 0,-17.94617 v -8.97308 h 2.99103 v 8.97308 z m 0,-17.94616 v -8.97308 h 2.99103 v 8.97308 z m 0,-17.94616 v -8.97308 h 2.99103 v 8.97308 z m 0,-17.94616 v -8.97302 h 2.99103 v 8.97302 z m 0,-17.94622 v -8.97302 h 2.99103 v 8.97302 z m 0,-17.9461 v -8.97308 h 2.99103 v 8.97308 z m 0,-17.94616 v -8.97308 h 2.99103 v 8.97308 z m 0,-17.94611 v -8.9732 h 2.99103 v 8.9732 z m 0,-17.94622 v -8.97308 h 2.99103 v 8.97308 z m 0,-17.94616 V 611.665 h 2.99103 v 8.97308 z m 0,-17.94616 v -8.97308 h 2.99103 v 8.97308 z m 0,-17.94616 v -8.97308 h 2.99103 v 8.97308 z m 0,-17.94616 v -8.97308 h 2.99103 v 8.97308 z m 0,-17.94616 v -8.97308 h 2.99103 v 8.97308 z m 0,-17.94617 v -8.97308 h 2.99103 v 8.97308 z m 0,-17.94616 v -8.97308 h 2.99103 v 8.97308 z m 0,-17.94616 v -8.97308 h 2.99103 v 8.97308 z m 0,-17.94616 v -8.97308 h 2.99103 v 8.97308 z m 0,-17.94616 v -8.97308 h 2.99103 v 8.97308 z m 0,-17.94616 v -8.97308 h 2.99103 v 8.97308 z m 0,-17.94616 v -8.97308 h 2.99103 v 8.97308 z m 0,-17.94617 v -8.97308 h 2.99103 v 8.97308 z m 0,-17.94616 v -8.97308 h 2.99103 v 8.97308 z m 0,-17.94616 v -8.97308 h 2.99103 v 8.97308 z m 0,-17.94616 v -8.97308 h 2.99103 v 8.97308 z m 0,-17.94616 v -8.97308 h 2.99103 v 8.97308 z m 0,-17.94616 v -8.97308 h 2.99103 v 8.97308 z m 1.49552,-13.45962 h 8.97308 v 2.99102 h -8.97308 z" />
      <g
         id="g1770"
         transform="matrix(2.9910269,0,0,2.9910269,1.4955134,1.4955134)">
        <path
           d="M 142,141 H 302 V 261 H 142 Z"
           style="fill:#ffffff;fill-opacity:1;fill-rule:nonzero;stroke:none"
           id="path1772" />
        <path
           d="M 142,141 H 302 V 261 H 142 Z"
           style="fill:none;stroke:#000000;stroke-width:1;stroke-linecap:butt;stroke-linejoin:miter;stroke-miterlimit:10;stroke-dasharray:none;stroke-opacity:1"
           id="path1774" />
      </g>
      <g
         id="g1776"
         transform="matrix(2.9910269,0,0,2.9910269,496.51047,541.37585)">
        <text
           transform="translate(0.609375,17)"
           style="font-variant:normal;font-weight:normal;font-size:18px;font-family:Helvetica;-inkscape-font-specification:Helvetica;writing-mode:lr-tb;fill:#000000;fill-opacity:1;fill-rule:nonzero;stroke:none"
           id="text1780">
          <tspan
             x="0 4.6845703 9.6855469 14.686523 24.697266 33.697266 43.708008 53.71875 58.719727 68.730469 77.730469 82.731445 92.742188 102.75293"
             y="0"
             id="tspan1778">fft_spdf_stage</tspan>
        </text>
        <text
           transform="translate(50.5,38)"
           style="font-variant:normal;font-weight:normal;font-size:18px;font-family:Helvetica;-inkscape-font-specification:Helvetica;writing-mode:lr-tb;fill:#000000;fill-opacity:1;fill-rule:nonzero;stroke:none"
           id="text1784">
          <tspan
             x="0"
             y="0"
             id="tspan1782">N</tspan>
        </text>
      </g>
      <g
         id="g1786"
         transform="matrix(2.9910269,0,0,2.9910269,1.4955134,1.4955134)">
        <path
           d="M 462,141 H 622 V 261 H 462 Z"
           style="fill:#ffffff;fill-opacity:1;fill-rule:nonzero;stroke:none"
           id="path1788" />
        <path
           d="M 462,141 H 622 V 261 H 462 Z"
           style="fill:none;stroke:#000000;stroke-width:1;stroke-linecap:butt;stroke-linejoin:miter;stroke-miterlimit:10;stroke-dasharray:none;stroke-opacity:1"
           id="path1790" />
      </g>
      <g
         id="g1792"
         transform="matrix(2.9910269,0,0,2.9910269,1447.657,541.37585)">
        <text
           transform="translate(30.984375,17)"
           style="font-variant:normal;font-weight:normal;font-size:18px;font-family:Helvetica;-inkscape-font-specification:Helvetica;writing-mode:lr-tb;fill:#000000;fill-opacity:1;fill-rule:nonzero;stroke:none"
           id="text1796">
          <tspan
             x="0 5.0009766 18 30.005859 43.004883"
             y="0"
             id="tspan1794">INPUT</tspan>
        </text>
        <text
           transform="translate(0.484375,38)"
           style="font-variant:normal;font-weight:normal;font-size:18px;font-family:Helvetica;-inkscape-font-specification:Helvetica;writing-mode:lr-tb;fill:#000000;fill-opacity:1;fill-rule:nonzero;stroke:none"
           id="text1800">
          <tspan
             x="0 12.999023 25.004883 39.005859 52.004883 65.003906 77.009766 90.008789 102.01465"
             y="0"
             id="tspan1798">REORDERER</tspan>
        </text>
      </g>
      <g
         id="g1802"
         transform="matrix(2.9910269,0,0,2.9910269,1.4955134,1.4955134)">
        <path
           d="M 681,141 H 841 V 261 H 681 Z"
           style="fill:#ffffff;fill-opacity:1;fill-rule:nonzero;stroke:none"
           id="path1804" />
        <path
           d="M 681,141 H 841 V 261 H 681 Z"
           style="fill:none;stroke:#000000;stroke-width:1;stroke-linecap:butt;stroke-linejoin:miter;stroke-miterlimit:10;stroke-dasharray:none;stroke-opacity:1"
           id="path1806" />
      </g>
      <g
         id="g1808"
         transform="matrix(2.9910269,0,0,2.9910269,2162.5125,541.37585)">
        <text
           transform="translate(0.5,17)"
           style="font-variant:normal;font-weight:normal;font-size:18px;font-family:Helvetica;-inkscape-font-specification:Helvetica;writing-mode:lr-tb;fill:#000000;fill-opacity:1;fill-rule:nonzero;stroke:none"
           id="text1812">
          <tspan
             x="0 12.005859 25.004883 37.010742 43.004883 54 64.995117"
             y="0"
             id="tspan1810">SUB-FFT</tspan>
        </text>
        <text
           transform="translate(24.5,38)"
           style="font-variant:normal;font-weight:normal;font-size:18px;font-family:Helvetica;-inkscape-font-specification:Helvetica;writing-mode:lr-tb;fill:#000000;fill-opacity:1;fill-rule:nonzero;stroke:none"
           id="text1816">
          <tspan
             x="0 12.999023 18"
             y="0"
             id="tspan1814">N/4</tspan>
        </text>
      </g>
      <g
         id="g1818"
         transform="matrix(2.9910269,0,0,2.9910269,1.4955134,1.4955134)">
        <path
           d="m 622,201 h 52.63"
           style="fill:none;stroke:#000000;stroke-width:1;stroke-linecap:butt;stroke-linejoin:miter;stroke-miterlimit:10;stroke-dasharray:none;stroke-opacity:1"
           id="path1820" />
        <path
           d="m 679.88,201 -7,3.5 1.75,-3.5 -1.75,-3.5 z"
           style="fill:#000000;fill-opacity:1;fill-rule:nonzero;stroke:none"
           id="path1822" />
        <path
           d="m 679.88,201 -7,3.5 1.75,-3.5 -1.75,-3.5 z"
           style="fill:none;stroke:#000000;stroke-width:1;stroke-linecap:butt;stroke-linejoin:miter;stroke-miterlimit:10;stroke-dasharray:none;stroke-opacity:1"
           id="path1824" />
        <path
           d="m 412,201 h 43.63"
           style="fill:none;stroke:#000000;stroke-width:1;stroke-linecap:butt;stroke-linejoin:miter;stroke-miterlimit:10;stroke-dasharray:none;stroke-opacity:1"
           id="path1826" />
        <path
           d="m 460.88,201 -7,3.5 1.75,-3.5 -1.75,-3.5 z"
           style="fill:#000000;fill-opacity:1;fill-rule:nonzero;stroke:none"
           id="path1828" />
        <path
           d="m 460.88,201 -7,3.5 1.75,-3.5 -1.75,-3.5 z"
           style="fill:none;stroke:#000000;stroke-width:1;stroke-linecap:butt;stroke-linejoin:miter;stroke-miterlimit:10;stroke-dasharray:none;stroke-opacity:1"
           id="path1830" />
        <path
           d="m 412,201 c 3e-5,0.98254 -0.0481,1.96272 -0.14441,2.94052 -0.0963,0.9778 -0.24039,1.94852 -0.43207,2.91217 -0.19165,0.96367 -0.43008,1.91562 -0.7153,2.85584 -0.28522,0.94023 -0.61584,1.86422 -0.99185,2.77195 -0.37601,0.90775 -0.79559,1.79488 -1.25876,2.66141 -0.46313,0.86653 -0.96765,1.70827 -1.51355,2.52521 -0.54587,0.81695 -1.13043,1.60519 -1.75375,2.3647 -0.62329,0.75951 -1.28232,1.48665 -1.97711,2.1814 -0.69477,0.69476 -1.42188,1.3538 -2.18137,1.97712 -0.75949,0.62331 -1.54773,1.20789 -2.36472,1.75374 -0.81695,0.54588 -1.65869,1.0504 -2.5252,1.51358 -0.86655,0.46315 -1.7537,0.88274 -2.66144,1.25873 -0.90775,0.37601 -1.83173,0.70662 -2.77194,0.99184 -0.94022,0.28521 -1.89218,0.52366 -2.85587,0.71533 -0.96362,0.19169 -1.93436,0.33571 -2.91217,0.43201 C 383.96271,230.95184 382.98254,231 382,231 c -0.98251,0 -1.96271,-0.0482 -2.94052,-0.14445 -0.97781,-0.0963 -1.94855,-0.2403 -2.91223,-0.432 -0.96366,-0.19168 -1.91559,-0.43013 -2.85584,-0.71534 -0.94021,-0.28522 -1.86419,-0.61583 -2.77197,-0.99184 -0.90772,-0.37599 -1.79483,-0.79558 -2.66138,-1.25874 -0.86648,-0.46317 -1.70822,-0.96769 -2.52517,-1.51357 -0.81693,-0.54585 -1.60517,-1.13043 -2.36466,-1.75375 -0.75952,-0.62331 -1.48666,-1.28235 -2.18143,-1.97711 -0.69473,-0.69475 -1.35379,-1.42188 -1.97711,-2.18139 -0.62332,-0.75952 -1.20791,-1.54776 -1.75378,-2.36471 -0.54587,-0.81694 -1.05039,-1.65869 -1.51355,-2.52522 -0.46317,-0.86652 -0.88275,-1.75365 -1.25876,-2.66141 -0.37598,-0.90773 -0.70657,-1.83171 -0.99182,-2.77194 -0.28522,-0.94023 -0.52368,-1.89217 -0.71536,-2.85584 -0.19168,-0.96365 -0.33567,-1.93437 -0.43195,-2.91217 C 352.04816,202.96272 352,201.98254 352,201 c 0,-0.98253 0.0482,-1.96271 0.14447,-2.94051 0.0963,-0.97781 0.24027,-1.94856 0.43195,-2.91223 0.19168,-0.96365 0.43014,-1.91559 0.71536,-2.85582 0.28525,-0.94023 0.61584,-1.86422 0.99182,-2.77197 0.37601,-0.90773 0.79562,-1.79486 1.25879,-2.66138 0.46316,-0.86653 0.96765,-1.70826 1.51352,-2.52522 0.54587,-0.81694 1.13046,-1.60516 1.75378,-2.36467 0.62332,-0.75951 1.28238,-1.48665 1.97711,-2.18141 0.69477,-0.69475 1.42191,-1.35379 2.18143,-1.9771 0.75949,-0.62332 1.5477,-1.20791 2.36463,-1.7538 0.81695,-0.54585 1.65869,-1.05037 2.5252,-1.51355 0.86655,-0.46315 1.75366,-0.88272 2.66138,-1.25874 0.90778,-0.37599 1.83176,-0.70659 2.77197,-0.99182 0.94025,-0.2852 1.89218,-0.52365 2.85584,-0.71535 0.96368,-0.19166 1.93442,-0.33566 2.91223,-0.43196 C 380.03729,171.04816 381.01749,171 382,171 c 0.98254,0 1.96271,0.0482 2.94052,0.14447 0.97781,0.0963 1.94852,0.2403 2.91214,0.43196 0.96365,0.1917 1.91562,0.43015 2.85584,0.71535 0.94021,0.28523 1.86419,0.61583 2.77194,0.99182 0.90774,0.37602 1.79489,0.79561 2.66144,1.25876 0.86651,0.46316 1.70825,0.96768 2.52523,1.51353 0.81699,0.54589 1.6052,1.13048 2.36469,1.7538 0.75949,0.62331 1.48663,1.28235 2.1814,1.9771 0.69479,0.69476 1.35382,1.4219 1.97714,2.18141 0.62329,0.75951 1.20785,1.54773 1.75372,2.36467 0.5459,0.81696 1.05042,1.65869 1.51355,2.52522 0.46317,0.86652 0.88275,1.75365 1.25876,2.66138 0.37601,0.90775 0.70663,1.83174 0.99185,2.77197 0.28525,0.94023 0.52368,1.89217 0.71533,2.85584 0.19168,0.96367 0.3357,1.9344 0.43201,2.9122 0.0963,0.97781 0.14447,1.95799 0.14444,2.94052 z"
           style="fill:#ffffff;fill-opacity:1;fill-rule:nonzero;stroke:none"
           id="path1832" />
        <path
           d="m 412,201 c 3e-5,0.98254 -0.0481,1.96272 -0.14441,2.94052 -0.0963,0.9778 -0.24039,1.94852 -0.43207,2.91217 -0.19165,0.96367 -0.43008,1.91562 -0.7153,2.85584 -0.28522,0.94023 -0.61584,1.86422 -0.99185,2.77195 -0.37601,0.90775 -0.79559,1.79488 -1.25876,2.66141 -0.46313,0.86653 -0.96765,1.70827 -1.51355,2.52521 -0.54587,0.81695 -1.13043,1.60519 -1.75375,2.3647 -0.62329,0.75951 -1.28232,1.48665 -1.97711,2.1814 -0.69477,0.69476 -1.42188,1.3538 -2.18137,1.97712 -0.75949,0.62331 -1.54773,1.20789 -2.36472,1.75374 -0.81695,0.54588 -1.65869,1.0504 -2.5252,1.51358 -0.86655,0.46315 -1.7537,0.88274 -2.66144,1.25873 -0.90775,0.37601 -1.83173,0.70662 -2.77194,0.99184 -0.94022,0.28521 -1.89218,0.52366 -2.85587,0.71533 -0.96362,0.19169 -1.93436,0.33571 -2.91217,0.43201 C 383.96271,230.95184 382.98254,231 382,231 c -0.98251,0 -1.96271,-0.0482 -2.94052,-0.14445 -0.97781,-0.0963 -1.94855,-0.2403 -2.91223,-0.432 -0.96366,-0.19168 -1.91559,-0.43013 -2.85584,-0.71534 -0.94021,-0.28522 -1.86419,-0.61583 -2.77197,-0.99184 -0.90772,-0.37599 -1.79483,-0.79558 -2.66138,-1.25874 -0.86648,-0.46317 -1.70822,-0.96769 -2.52517,-1.51357 -0.81693,-0.54585 -1.60517,-1.13043 -2.36466,-1.75375 -0.75952,-0.62331 -1.48666,-1.28235 -2.18143,-1.97711 -0.69473,-0.69475 -1.35379,-1.42188 -1.97711,-2.18139 -0.62332,-0.75952 -1.20791,-1.54776 -1.75378,-2.36471 -0.54587,-0.81694 -1.05039,-1.65869 -1.51355,-2.52522 -0.46317,-0.86652 -0.88275,-1.75365 -1.25876,-2.66141 -0.37598,-0.90773 -0.70657,-1.83171 -0.99182,-2.77194 -0.28522,-0.94023 -0.52368,-1.89217 -0.71536,-2.85584 -0.19168,-0.96365 -0.33567,-1.93437 -0.43195,-2.91217 C 352.04816,202.96272 352,201.98254 352,201 c 0,-0.98253 0.0482,-1.96271 0.14447,-2.94051 0.0963,-0.97781 0.24027,-1.94856 0.43195,-2.91223 0.19168,-0.96365 0.43014,-1.91559 0.71536,-2.85582 0.28525,-0.94023 0.61584,-1.86422 0.99182,-2.77197 0.37601,-0.90773 0.79562,-1.79486 1.25879,-2.66138 0.46316,-0.86653 0.96765,-1.70826 1.51352,-2.52522 0.54587,-0.81694 1.13046,-1.60516 1.75378,-2.36467 0.62332,-0.75951 1.28238,-1.48665 1.97711,-2.18141 0.69477,-0.69475 1.42191,-1.35379 2.18143,-1.9771 0.75949,-0.62332 1.5477,-1.20791 2.36463,-1.7538 0.81695,-0.54585 1.65869,-1.05037 2.5252,-1.51355 0.86655,-0.46315 1.75366,-0.88272 2.66138,-1.25874 0.90778,-0.37599 1.83176,-0.70659 2.77197,-0.99182 0.94025,-0.2852 1.89218,-0.52365 2.85584,-0.71535 0.96368,-0.19166 1.93442,-0.33566 2.91223,-0.43196 C 380.03729,171.04816 381.01749,171 382,171 c 0.98254,0 1.96271,0.0482 2.94052,0.14447 0.97781,0.0963 1.94852,0.2403 2.91214,0.43196 0.96365,0.1917 1.91562,0.43015 2.85584,0.71535 0.94021,0.28523 1.86419,0.61583 2.77194,0.99182 0.90774,0.37602 1.79489,0.79561 2.66144,1.25876 0.86651,0.46316 1.70825,0.96768 2.52523,1.51353 0.81699,0.54589 1.6052,1.13048 2.36469,1.7538 0.75949,0.62331 1.48663,1.28235 2.1814,1.9771 0.69479,0.69476 1.35382,1.4219 1.97714,2.18141 0.62329,0.75951 1.20785,1.54773 1.75372,2.36467 0.5459,0.81696 1.05042,1.65869 1.51355,2.52522 0.46317,0.86652 0.88275,1.75365 1.25876,2.66138 0.37601,0.90775 0.70663,1.83174 0.99185,2.77197 0.28525,0.94023 0.52368,1.89217 0.71533,2.85584 0.19168,0.96367 0.3357,1.9344 0.43201,2.9122 0.0963,0.97781 0.14447,1.95799 0.14444,2.94052 z"
           style="fill:none;stroke:#000000;stroke-width:1;stroke-linecap:butt;stroke-linejoin:miter;stroke-miterlimit:10;stroke-dasharray:none;stroke-opacity:1"
           id="path1834" />
        <path
           d="m 360.64001,179.64 42.71998,42.72 m 0,-42.72 -42.71998,42.72"
           style="fill:none;stroke:#000000;stroke-width:1;stroke-linecap:butt;stroke-linejoin:miter;stroke-miterlimit:10;stroke-dasharray:none;stroke-opacity:1"
           id="path1836" />
        <path
           d="m 302,201 h 43.63"
           style="fill:none;stroke:#000000;stroke-width:1;stroke-linecap:butt;stroke-linejoin:miter;stroke-miterlimit:10;stroke-dasharray:none;stroke-opacity:1"
           id="path1838" />
        <path
           d="m 350.88,201 -7,3.5 1.75,-3.5 -1.75,-3.5 z"
           style="fill:#000000;fill-opacity:1;fill-rule:nonzero;stroke:none"
           id="path1840" />
        <path
           d="m 350.88,201 -7,3.5 1.75,-3.5 -1.75,-3.5 z"
           style="fill:none;stroke:#000000;stroke-width:1;stroke-linecap:butt;stroke-linejoin:miter;stroke-miterlimit:10;stroke-dasharray:none;stroke-opacity:1"
           id="path1842" />
        <path
           d="M 382,311 V 237.37"
           style="fill:none;stroke:#000000;stroke-width:1;stroke-linecap:butt;stroke-linejoin:miter;stroke-miterlimit:10;stroke-dasharray:none;stroke-opacity:1"
           id="path1844" />
        <path
           d="m 382,232.12 3.5,7 -3.5,-1.75 -3.5,1.75 z"
           style="fill:#000000;fill-opacity:1;fill-rule:nonzero;stroke:none"
           id="path1846" />
        <path
           d="m 382,232.12 3.5,7 -3.5,-1.75 -3.5,1.75 z"
           style="fill:none;stroke:#000000;stroke-width:1;stroke-linecap:butt;stroke-linejoin:miter;stroke-miterlimit:10;stroke-dasharray:none;stroke-opacity:1"
           id="path1848" />
        <path
           d="M 302,311 H 462 V 421 H 302 Z"
           style="fill:#ffffff;fill-opacity:1;fill-rule:nonzero;stroke:none"
           id="path1850" />
        <path
           d="M 302,311 H 462 V 421 H 302 Z"
           style="fill:none;stroke:#000000;stroke-width:1;stroke-linecap:butt;stroke-linejoin:miter;stroke-miterlimit:10;stroke-dasharray:none;stroke-opacity:1"
           id="path1852" />
      </g>
      <g
         id="g1854"
         transform="matrix(2.9910269,0,0,2.9910269,975.07477,1034.8953)">
        <text
           transform="translate(16.5,17)"
           style="font-variant:normal;font-weight:normal;font-size:18px;font-family:Helvetica;-inkscape-font-specification:Helvetica;writing-mode:lr-tb;fill:#000000;fill-opacity:1;fill-rule:nonzero;stroke:none"
           id="text1858">
          <tspan
             x="0 10.995117 27.984375 32.985352 45.984375 58.983398 68.994141"
             y="0"
             id="tspan1856">TWIDDLE</tspan>
        </text>
        <text
           transform="translate(0.8125,38)"
           style="font-variant:normal;font-weight:normal;font-size:18px;font-family:Helvetica;-inkscape-font-specification:Helvetica;writing-mode:lr-tb;fill:#000000;fill-opacity:1;fill-rule:nonzero;stroke:none"
           id="text1862">
          <tspan
             x="0 14.000977 26.006836 39.005859 51.011719 64.010742 74.689453 85.368164 99.369141"
             y="0"
             id="tspan1860">GENERATOR</tspan>
        </text>
      </g>
      <g
         id="g1864"
         transform="matrix(2.9910269,0,0,2.9910269,1.4955134,1.4955134)">
        <path
           d="m 81,201 h 54.63"
           style="fill:none;stroke:#000000;stroke-width:1;stroke-linecap:butt;stroke-linejoin:miter;stroke-miterlimit:10;stroke-dasharray:none;stroke-opacity:1"
           id="path1866" />
        <path
           d="m 140.88,201 -7,3.5 1.75,-3.5 -1.75,-3.5 z"
           style="fill:#000000;fill-opacity:1;fill-rule:nonzero;stroke:none"
           id="path1868" />
        <path
           d="m 140.88,201 -7,3.5 1.75,-3.5 -1.75,-3.5 z"
           style="fill:none;stroke:#000000;stroke-width:1;stroke-linecap:butt;stroke-linejoin:miter;stroke-miterlimit:10;stroke-dasharray:none;stroke-opacity:1"
           id="path1870" />
        <path
           d="m 17,186 h 48 l 16,15 -16,15 H 17 L 1,201 Z"
           style="fill:#ffffff;fill-opacity:1;fill-rule:nonzero;stroke:none"
           id="path1872" />
        <path
           d="m 17,186 h 48 l 16,15 -16,15 H 17 L 1,201 Z"
           style="fill:none;stroke:#000000;stroke-width:1;stroke-linecap:butt;stroke-linejoin:miter;stroke-miterlimit:10;stroke-dasharray:none;stroke-opacity:1"
           id="path1874" />
      </g>
      <g
         id="g1876"
         transform="matrix(2.9910269,0,0,2.9910269,89.730804,577.26819)">
        <text
           transform="translate(0.3125,14)"
           style="font-variant:normal;font-weight:normal;font-size:16px;font-family:Helvetica;-inkscape-font-specification:Helvetica;writing-mode:lr-tb;fill:#000000;fill-opacity:1;fill-rule:nonzero;stroke:none"
           id="text1880">
          <tspan
             x="0 8.8984375 12.453125"
             y="0"
             id="tspan1878">din</tspan>
        </text>
      </g>
      <g
         id="g1882"
         transform="matrix(2.9910269,0,0,2.9910269,1.4955134,1.4955134)">
        <path
           d="m 937,186 h 48 l 16,15 -16,15 h -48 l -16,-15 z"
           style="fill:#ffffff;fill-opacity:1;fill-rule:nonzero;stroke:none"
           id="path1884" />
        <path
           d="m 937,186 h 48 l 16,15 -16,15 h -48 l -16,-15 z"
           style="fill:none;stroke:#000000;stroke-width:1;stroke-linecap:butt;stroke-linejoin:miter;stroke-miterlimit:10;stroke-dasharray:none;stroke-opacity:1"
           id="path1886" />
      </g>
      <g
         id="g1888"
         transform="matrix(2.9910269,0,0,2.9910269,2826.5205,577.26819)">
        <text
           transform="translate(0.421875,14)"
           style="font-variant:normal;font-weight:normal;font-size:16px;font-family:Helvetica;-inkscape-font-specification:Helvetica;writing-mode:lr-tb;fill:#000000;fill-opacity:1;fill-rule:nonzero;stroke:none"
           id="text1892">
          <tspan
             x="0 8.8984375 17.796875 26.695312"
             y="0"
             id="tspan1890">dout</tspan>
        </text>
      </g>
      <g
         id="g1894"
         transform="matrix(2.9910269,0,0,2.9910269,1.4955134,1.4955134)">
        <path
           d="m 841,201 h 73.63"
           style="fill:none;stroke:#000000;stroke-width:1;stroke-linecap:butt;stroke-linejoin:miter;stroke-miterlimit:10;stroke-dasharray:none;stroke-opacity:1"
           id="path1896" />
        <path
           d="m 919.88,201 -7,3.5 1.75,-3.5 -1.75,-3.5 z"
           style="fill:#000000;fill-opacity:1;fill-rule:nonzero;stroke:none"
           id="path1898" />
        <path
           d="m 919.88,201 -7,3.5 1.75,-3.5 -1.75,-3.5 z"
           style="fill:none;stroke:#000000;stroke-width:1;stroke-linecap:butt;stroke-linejoin:miter;stroke-miterlimit:10;stroke-dasharray:none;stroke-opacity:1"
           id="path1900" />
      </g>
    </g>
  </g>
</svg>
